<svg width="229" height="67" viewBox="0 0 229 67" fill="none" xmlns="http://www.w3.org/2000/svg">
<g clip-path="url(#clip0_401_417)">
<path fill-rule="evenodd" clip-rule="evenodd" d="M221.601 57.581C221.545 58.405 221.407 59.4326 220.787 60.0379C220.024 60.7826 218.672 60.8468 217.661 60.8468H199.731C199.008 60.8468 198.6 61.1994 198.587 61.9291L198.529 65.2113C198.511 66.2211 199.362 66.9986 200.359 66.9986H218.838C220.368 66.9986 221.965 66.9043 223.449 66.5313C227.646 65.4791 228.671 62.6451 228.742 58.6482L228.995 44.4234C229.038 41.9187 228.697 39.3238 226.691 37.5843C224.559 35.7369 221.368 35.4445 218.659 35.4445H207.673C206.143 35.4445 204.546 35.5387 203.062 35.9118C198.916 36.9503 197.839 39.8458 197.769 43.7962L197.696 47.8997C197.651 50.4194 198.027 53.0007 199.998 54.7784C202.099 56.6723 205.324 56.9552 208.031 56.9552H221.643L221.599 57.5797L221.601 57.581ZM221.732 51.1559H207.947C207.272 51.1559 205.826 51.1122 205.332 50.6517C204.88 50.2295 204.862 49.1596 204.873 48.5665L204.94 44.8156C204.955 43.9329 205.066 42.8889 205.763 42.2603C206.519 41.5785 207.883 41.5211 208.857 41.5211H218.744C219.412 41.5211 220.799 41.5839 221.323 41.9788L221.356 42.0034L221.385 42.0321C221.813 42.4585 221.866 43.6364 221.855 44.228L221.732 51.1573V51.1559Z" fill="#32E0C4"/>
<path fill-rule="evenodd" clip-rule="evenodd" d="M181.859 35.4458H170.599C169.069 35.4458 167.472 35.5401 165.988 35.9131C161.872 36.9448 160.765 39.828 160.697 43.7579L160.472 56.4195C160.451 57.5523 161.387 58.3626 162.495 58.3626H166.341C167.168 58.3626 167.629 57.9581 167.644 57.1246L167.844 45.7912C167.862 44.8115 167.947 43.4027 168.687 42.6798C169.44 41.9433 170.772 41.8709 171.772 41.8709H182.208C182.794 41.8709 183.441 41.8955 184.008 42.0526C184.219 42.11 184.474 42.2084 184.635 42.386C185.05 42.8779 185.048 44.4302 185.035 45.0861L184.835 56.4195C184.816 57.5332 185.717 58.3626 186.82 58.3626H190.666C191.493 58.3626 191.954 57.9581 191.969 57.1246L192.194 44.463C192.238 41.9597 191.849 39.388 189.892 37.6226C187.805 35.741 184.551 35.4458 181.859 35.4458Z" fill="#32E0C4"/>
<path fill-rule="evenodd" clip-rule="evenodd" d="M119.203 40.801L119.367 31.4899C119.387 30.3763 118.485 29.5468 117.382 29.5468H113.145C112.31 29.5468 111.817 29.9335 111.801 30.7848L111.347 56.4209C111.327 57.5537 112.262 58.364 113.371 58.364H117.609C118.436 58.364 118.897 57.9595 118.912 57.126L119.096 46.7956H124.641C125.325 46.7956 126.346 46.8284 126.973 47.088C127.423 47.2752 127.795 47.6647 128.084 48.0459L135.13 57.3351C135.664 58.0811 136.231 58.3626 137.148 58.3626H142.171C142.688 58.3626 143.163 58.1973 143.227 57.6261C143.281 57.1602 143.179 56.7447 142.89 56.3703L135.033 46.2176C134.487 45.4961 133.883 44.8088 133.212 44.2007L132.767 43.7962L133.184 43.3631C133.713 42.8124 134.196 42.2207 134.665 41.6031L142.431 31.8179C142.672 31.5009 142.699 31.1292 142.596 30.7548C142.388 30.0046 141.644 29.5455 140.885 29.5455H136.021C135.321 29.5455 134.944 29.6193 134.51 30.2096L127.606 39.194C126.885 40.0849 126.282 40.6342 125.085 40.7449C124.585 40.7914 124.081 40.801 123.579 40.801H119.203Z" fill="#32E0C4"/>
<path fill-rule="evenodd" clip-rule="evenodd" d="M95.1894 35.4458H83.929C82.3993 35.4458 80.8024 35.5401 79.3181 35.9131C75.2024 36.9448 74.0953 39.828 74.0267 43.7579L73.8017 56.4195C73.7811 57.5523 74.7168 58.3626 75.8253 58.3626H79.6706C80.4979 58.3626 80.9588 57.9581 80.9739 57.1246L81.1742 45.7912C81.1921 44.8115 81.2771 43.4027 82.0166 42.6798C82.7697 41.9433 84.1018 41.8709 85.1019 41.8709H95.5392C96.125 41.8709 96.7711 41.8955 97.3391 42.0526C97.5504 42.11 97.8055 42.2084 97.966 42.386C98.3817 42.8779 98.379 44.4302 98.3666 45.0861L98.1663 56.4195C98.1471 57.5332 99.0485 58.3626 100.151 58.3626H103.997C104.824 58.3626 105.285 57.9581 105.3 57.1246L105.525 44.463C105.569 41.9597 105.181 39.388 103.223 37.6226C101.136 35.741 97.8824 35.4458 95.1907 35.4458H95.1894Z" fill="#222831"/>
<path fill-rule="evenodd" clip-rule="evenodd" d="M42.3404 35.4458H38.495C37.6417 35.4458 37.167 35.8639 37.152 36.7234L36.927 49.385C36.8831 51.8884 37.2727 54.4614 39.229 56.2255C41.3238 58.1126 44.5683 58.364 47.2614 58.364H58.2076C59.7304 58.364 61.308 58.2711 62.7924 57.9185C66.9355 56.9347 68.0399 54.0228 68.1098 50.0915L68.3348 37.4299C68.3554 36.308 67.4733 35.4472 66.3511 35.4472H62.5057C61.6579 35.4472 61.2161 35.8831 61.2024 36.7248L61.0021 48.0186C60.9843 49.0106 60.9102 50.3948 60.1612 51.13C59.3998 51.8761 58.0471 51.9389 57.036 51.9389H46.9527C46.349 51.9389 45.0499 51.9061 44.5958 51.5194L44.5615 51.4907L44.5313 51.4566C44.1047 50.9619 44.1115 49.3891 44.1239 48.725L44.3242 37.4313C44.3447 36.3094 43.4626 35.4485 42.3404 35.4485V35.4458Z" fill="#222831"/>
<path fill-rule="evenodd" clip-rule="evenodd" d="M27.771 48.7073C29.0606 48.2728 30.1951 47.5649 30.995 46.4527C32.1377 44.8662 32.4958 42.822 32.5301 40.9076L32.5699 38.6803C32.6124 36.2589 32.1254 33.7924 30.4037 31.9751C28.5544 30.0224 25.7173 29.5469 23.1409 29.5469H2.07157C1.03443 29.5469 0.466468 30.0566 0.448633 31.0978L2.79517e-05 56.4196C-0.0205503 57.5524 0.915073 58.3627 2.02355 58.3627H6.2613C7.08854 58.3627 7.54949 57.9582 7.56458 57.1247L7.69628 49.7253H19.4094L25.0725 57.3283C25.6062 58.0784 26.1742 58.3627 27.0961 58.3627H32.1569C32.644 58.3627 33.0926 58.2083 33.2051 57.6931C33.3107 57.2107 33.179 56.7503 32.8525 56.3799L32.8333 56.3567L26.9836 48.971L27.7724 48.7059L27.771 48.7073ZM24.5224 36.8219C24.934 37.2591 25.0012 38.176 24.9902 38.7554L24.9614 40.3965C24.9463 41.2205 24.7844 42.1374 24.1877 42.7509C23.5758 43.3781 22.5154 43.497 21.6758 43.497H7.80604L7.93225 36.3614H22.54C23.0765 36.3614 24.1012 36.4256 24.4963 36.7959L24.5101 36.8082L24.5224 36.8219Z" fill="#222831"/>
<path fill-rule="evenodd" clip-rule="evenodd" d="M147.842 32.9466L155.016 30.2082L155.03 29.4553C155.049 28.3416 154.147 27.5122 153.044 27.5122H149.199C148.365 27.5122 147.871 27.8989 147.856 28.7502L147.79 32.4629C147.787 32.6255 147.804 32.7881 147.841 32.9466H147.842Z" fill="#32E0C4"/>
<path fill-rule="evenodd" clip-rule="evenodd" d="M154.822 32.1035L147.774 34.794L147.407 56.4195C147.388 57.5332 148.289 58.3626 149.392 58.3626H153.238C154.065 58.3626 154.526 57.9581 154.541 57.1246L154.955 32.8509C154.96 32.594 154.916 32.3412 154.825 32.1035H154.822Z" fill="#32E0C4"/>
<path fill-rule="evenodd" clip-rule="evenodd" d="M50.5977 18.0768C50.8461 18.0768 50.9695 18.2285 50.9695 18.5332V20.5679C50.9695 20.8863 50.8461 21.0448 50.5977 21.0448H42.1195C41.6791 21.0448 41.3156 21.0899 41.0275 21.1801C40.7394 21.2702 40.5117 21.4219 40.3416 21.6365C40.1728 21.851 40.0507 22.1379 39.978 22.4973C39.9053 22.8567 39.8683 23.3145 39.8683 23.8679V26.8577C39.8683 27.4111 39.9053 27.8716 39.978 28.2378C40.0507 28.604 40.1728 28.8951 40.3416 29.1096C40.5103 29.3241 40.7394 29.4758 41.0275 29.566C41.3156 29.6562 41.6791 29.7013 42.1195 29.7013H47.7044C47.998 29.7013 48.212 29.6084 48.3479 29.4211C48.4837 29.2339 48.5509 28.906 48.5509 28.4346V26.7525C48.5509 26.5721 48.4837 26.4833 48.3479 26.4833H43.3899C43.1416 26.4833 43.0181 26.3248 43.0181 26.0064V24.45C43.0181 24.1316 43.1416 23.9731 43.3899 23.9731H50.4468C50.7857 23.9731 50.9544 24.1808 50.9544 24.5962V29.4334C50.9544 30.5963 50.7733 31.4162 50.4125 31.8931C50.0517 32.37 49.5332 32.6091 48.8554 32.6091H42.018C41.1606 32.6091 40.4335 32.5121 39.8353 32.318C39.2372 32.124 38.7488 31.8097 38.3715 31.3738C37.9943 30.9379 37.7171 30.3708 37.5429 29.6712C37.3687 28.973 37.2809 28.1244 37.2809 27.1282V23.5577C37.2809 22.5615 37.3687 21.7171 37.5429 21.0257C37.7171 20.3342 37.9943 19.7699 38.3715 19.334C38.7502 18.8981 39.2372 18.5797 39.8353 18.3788C40.4335 18.178 41.1606 18.0782 42.018 18.0782H50.5977V18.0768ZM62.9186 18.0768C63.776 18.0768 64.5072 18.1766 65.1109 18.3775C65.7145 18.5783 66.2056 18.8967 66.5829 19.3326C66.9615 19.7685 67.2346 20.3329 67.4033 21.0243C67.572 21.7157 67.6571 22.5602 67.6571 23.5563V27.1269C67.6571 28.123 67.572 28.9716 67.4033 29.6698C67.2346 30.3681 66.9602 30.9365 66.5829 31.3724C66.2056 31.8083 65.7145 32.1226 65.1109 32.3167C64.5072 32.5107 63.776 32.6077 62.9186 32.6077H57.689C56.8316 32.6077 56.1045 32.5107 55.5063 32.3167C54.9082 32.1226 54.4198 31.8083 54.0425 31.3724C53.6653 30.9365 53.3881 30.3695 53.2139 29.6698C53.0397 28.9716 52.9519 28.123 52.9519 27.1269V23.5563C52.9519 22.5602 53.0397 21.7157 53.2139 21.0243C53.3881 20.3329 53.6653 19.7685 54.0425 19.3326C54.4212 18.8967 54.9082 18.5783 55.5063 18.3775C56.1045 18.1766 56.8316 18.0768 57.689 18.0768H62.9186ZM55.5393 26.8987C55.5393 27.4384 55.5763 27.8921 55.649 28.2583C55.7217 28.6245 55.8438 28.9156 56.0126 29.1301C56.1813 29.3446 56.4104 29.4963 56.6985 29.5865C56.9866 29.6767 57.3501 29.7218 57.7905 29.7218H62.8171C63.2575 29.7218 63.621 29.6767 63.9091 29.5865C64.1972 29.4963 64.4249 29.3446 64.5951 29.1301C64.7638 28.9156 64.8859 28.6245 64.9586 28.2583C65.0313 27.8921 65.0683 27.4384 65.0683 26.8987V23.7845C65.0683 23.2448 65.0313 22.7911 64.9586 22.4249C64.8859 22.0587 64.7638 21.7676 64.5951 21.5531C64.4263 21.3386 64.1972 21.1869 63.9091 21.0967C63.621 21.0065 63.2575 20.9614 62.8171 20.9614H57.7905C57.3501 20.9614 56.9866 21.0065 56.6985 21.0967C56.4104 21.1869 56.1827 21.3386 56.0126 21.5531C55.8438 21.7676 55.7217 22.0587 55.649 22.4249C55.5763 22.7911 55.5393 23.2448 55.5393 23.7845V26.8987Z" fill="#222831" stroke="#222831" stroke-width="1.42" stroke-miterlimit="22.93"/>
<path fill-rule="evenodd" clip-rule="evenodd" d="M41.7107 16.0162L40.1275 5.06818C40.1111 5.06955 40.0946 5.07091 40.0781 5.07091C39.9025 5.07091 39.7434 4.99986 39.6282 4.88508C39.5129 4.77029 39.4416 4.61178 39.4416 4.43688C39.4416 4.26197 39.5129 4.10346 39.6282 3.98868C39.7434 3.8739 39.9025 3.80284 40.0781 3.80284C40.2537 3.80284 40.4129 3.8739 40.5281 3.98868C40.6434 4.10346 40.7147 4.26197 40.7147 4.43688C40.7147 4.61178 40.6434 4.77029 40.5281 4.88508C40.454 4.95886 40.3608 5.01489 40.2579 5.04495L44.545 9.63214L46.1995 6.88966C45.9196 6.8678 45.6672 6.74482 45.4806 6.55898C45.2735 6.35265 45.1445 6.06706 45.1445 5.75277C45.1445 5.43849 45.2735 5.15153 45.4806 4.9452C45.6878 4.73886 45.9745 4.61042 46.2914 4.61042C46.6069 4.61042 46.895 4.73886 47.1008 4.9452C47.308 5.15153 47.4369 5.43712 47.4369 5.75277C47.4369 6.06842 47.308 6.35265 47.1008 6.55898C46.9129 6.74619 46.6618 6.8678 46.3806 6.88966L48.485 10.3769L53.3744 2.27515C53.1124 2.24508 52.8764 2.12484 52.6981 1.94856C52.4909 1.74223 52.362 1.45664 52.362 1.14236C52.362 0.828071 52.4909 0.541116 52.6981 0.334781C52.9052 0.128447 53.192 0 53.5089 0C53.8258 0 54.1111 0.128447 54.3196 0.334781C54.5268 0.541116 54.6544 0.826705 54.6544 1.14236C54.6544 1.45801 54.5254 1.74223 54.3196 1.94856C54.1413 2.1262 53.9067 2.24508 53.6433 2.27515L58.5327 10.3769L60.6193 6.91973C60.3463 6.89376 60.1008 6.77351 59.9183 6.59041C59.7111 6.38408 59.5822 6.09849 59.5822 5.78284C59.5822 5.46718 59.7111 5.18296 59.9183 4.97526C60.1255 4.76893 60.4122 4.64048 60.7291 4.64048C61.046 4.64048 61.3313 4.76893 61.5399 4.97526C61.747 5.1816 61.876 5.46718 61.876 5.78284C61.876 6.09849 61.747 6.38408 61.5399 6.59041C61.3574 6.77351 61.1118 6.89376 60.8388 6.91973L62.4522 9.59388L66.7516 4.99302C66.6474 4.96296 66.5555 4.90694 66.4814 4.83315C66.3661 4.71837 66.2948 4.55986 66.2948 4.38495C66.2948 4.21005 66.3661 4.05154 66.4814 3.93676C66.5966 3.82197 66.7558 3.75092 66.9314 3.75092C67.107 3.75092 67.2661 3.82197 67.3813 3.93676C67.4966 4.05154 67.5679 4.21005 67.5679 4.38495C67.5679 4.55986 67.4966 4.71837 67.3813 4.83315C67.2661 4.94793 67.107 5.01899 66.9314 5.01899C66.9149 5.01899 66.8984 5.01899 66.882 5.01762L65.3263 15.7429C65.2398 15.7197 42.1497 15.911 42.0646 15.9356L41.7148 16.0162H41.7107Z" fill="#32E0C4"/>
</g>
<defs>
<clipPath id="clip0_401_417">
<rect width="229" height="67" fill="white"/>
</clipPath>
</defs>
</svg>
