<svg width="14" height="10" viewBox="0 0 14 10" fill="none" xmlns="http://www.w3.org/2000/svg">
<path d="M1.1857 3.81473C2.69534 2.33705 4.7432 1.42857 7.00109 1.42857C9.25899 1.42857 11.3068 2.33705 12.8165 3.81473C13.0965 4.08705 13.5385 4.07812 13.8054 3.79464C14.0723 3.51116 14.0636 3.05804 13.7857 2.78571C12.0267 1.06027 9.63531 0 7.00109 0C4.36688 0 1.97552 1.06027 0.214278 2.78348C-0.0635829 3.05804 -0.0723345 3.50893 0.194587 3.79464C0.461509 4.08036 0.90565 4.08929 1.18351 3.81473H1.1857ZM7.00109 5C8.24381 5 9.37714 5.47098 10.2435 6.25C10.5345 6.51116 10.9765 6.48214 11.2325 6.1875C11.4884 5.89286 11.46 5.43973 11.1712 5.17857C10.0598 4.17857 8.59825 3.57143 7.00109 3.57143C5.40394 3.57143 3.94243 4.17857 2.83318 5.17857C2.54219 5.43973 2.51593 5.89063 2.77191 6.1875C3.0279 6.48438 3.46985 6.51116 3.76084 6.25C4.62505 5.47098 5.75838 5 7.00328 5H7.00109ZM8.40134 8.57143C8.40134 8.19255 8.25381 7.82919 7.99122 7.56128C7.72862 7.29337 7.37246 7.14286 7.00109 7.14286C6.62973 7.14286 6.27357 7.29337 6.01097 7.56128C5.74837 7.82919 5.60085 8.19255 5.60085 8.57143C5.60085 8.95031 5.74837 9.31367 6.01097 9.58158C6.27357 9.84949 6.62973 10 7.00109 10C7.37246 10 7.72862 9.84949 7.99122 9.58158C8.25381 9.31367 8.40134 8.95031 8.40134 8.57143Z" fill="#c7c7c7"/>
</svg>
